Coordinates
version=1
nRows=5
nColumns=42
inDegrees=yes

Units are S.I. units (second, meters, Newtons, ...)
If the header above contains a line with 'inDegrees', this indicates whether rotational values are in degrees (yes) or radians (no).

endheader
time	pelvis_tilt	pelvis_list	pelvis_rotation	pelvis_tx	pelvis_ty	pelvis_tz	hip_flexion_r	hip_adduction_r	hip_rotation_r	knee_angle_r	knee_adduction_r	knee_angle_r_beta	ankle_angle_r	subtalar_angle_r	mtp_angle_r	hip_flexion_l	hip_adduction_l	hip_rotation_l	knee_angle_l	knee_adduction_l	knee_angle_l_beta	ankle_angle_l	subtalar_angle_l	mtp_angle_l	lumbar_extension	lumbar_bending	lumbar_rotation	arm_flex_r	arm_add_r	arm_rot_r	elbow_flex_r	pro_sup_r	wrist_flex_r	wrist_dev_r	arm_flex_l	arm_add_l	arm_rot_l	elbow_flex_l	pro_sup_l	wrist_flex_l	wrist_dev_l
      0.00000000	     11.04691323	      5.45236198	     -1.64951100	     -1.11246866	      0.88933011	     -0.32815963	     -3.28402233	     -8.74549826	      0.30564822	     71.86708002	      0.45328634	      1.25431717	     10.90580851	    -16.36779090	     -9.61742749	     -6.81479594	      6.78788943	     -9.58518625	     15.44474387	      4.72297967	      0.26956163	     16.09345496	     -7.73377561	     -9.61742749	    -21.90727688	     -8.85448296	     -1.79819578	     -5.57333522	     -2.41957035	    -20.69707003	     37.62584826	     90.00000001	      0.00000000	      0.00000000	     -2.46535069	     -5.60009567	    -22.97752753	     36.13752824	     90.00000001	      0.00000000	      0.00000000
      0.01000000	     10.93333268	      5.09549993	     -1.52531489	     -1.10237727	      0.89017013	     -0.32912381	     -1.47945161	     -8.29218381	      0.43165670	     71.71046638	      0.33760985	      1.25158375	     11.98089754	    -16.53285701	     -9.58270125	     -7.85261537	      6.48726108	     -9.65317718	     14.61767402	      4.74907389	      0.25512654	     16.28114739	     -7.37967433	     -9.58270125	    -21.86222194	     -8.37336945	     -2.15758377	     -5.77964979	     -2.49927430	    -20.84769465	     37.53346025	     90.00000001	      0.00000000	      0.00000000	     -2.07786391	     -5.52445311	    -22.68412903	     36.52532999	     90.00000001	      0.00000000	      0.00000000
      0.02000000	     10.80744721	      4.73614978	     -1.33395966	     -1.09234777	      0.89084850	     -0.33007530	      0.26262828	     -7.85262960	      0.63407240	     71.22855462	      0.41740509	      1.24317280	     12.78060573	    -16.65269629	     -9.55111982	     -8.92656524	      6.15337589	     -9.67692681	     13.67964232	      4.82520414	      0.23875480	     16.47032475	     -7.00609705	     -9.55111982	    -21.81995963	     -7.87389492	     -2.57094321	     -5.94827144	     -2.54067962	    -21.07581913	     37.43918021	     90.00000001	      0.00000000	      0.00000000	     -1.73064317	     -5.50967927	    -22.26410854	     36.93029249	     90.00000001	      0.00000000	      0.00000000
      0.03000000	     11.07041819	      4.16669540	     -1.16538021	     -1.08200448	      0.89194816	     -0.33062765	      1.33154449	     -7.07029875	      1.36036492	     70.18054420	      0.92332190	      1.22488157	     13.20753066	    -17.14112108	     -9.47519545	    -10.82826648	      5.52638697	     -8.81602034	     11.94088211	      5.27871999	      0.20840771	     16.48414812	     -6.77045974	     -9.47519545	    -22.14613654	     -7.20032080	     -2.86299758	     -6.00118859	     -2.46349181	    -22.01121540	     37.17687503	     90.00000001	      0.00000000	      0.00000000	     -1.48359521	     -5.70014091	    -20.80341896	     37.58277163	     90.00000001	      0.00000000	      0.00000000
      0.04000000	     10.79106688	      3.96273311	     -0.91797197	     -1.07203554	      0.89201351	     -0.33152896	      3.10698247	     -6.79716438	      1.35718228	     69.15493587	      0.87300105	      1.20698132	     13.85744129	    -17.07599124	     -9.44432041	    -11.63240514	      5.36523317	     -9.02100865	     11.22733315	      5.19352500	      0.19595393	     16.53602160	     -6.41801112	     -9.44432041	    -21.92503294	     -6.85701082	     -3.37141159	     -6.19196307	     -2.47586826	    -22.21832370	     37.13683414	     90.00000001	      0.00000000	      0.00000000	     -1.11946322	     -5.77305919	    -20.40566629	     38.03682077	     90.00000001	      0.00000000	      0.00000000
